<?xml version="1.0" encoding="utf-8"?>
<!-- Generator: Adobe Illustrator 16.0.0, SVG Export Plug-In . SVG Version: 6.00 Build 0)  -->
<!DOCTYPE svg PUBLIC "-//W3C//DTD SVG 1.1//EN" "http://www.w3.org/Graphics/SVG/1.1/DTD/svg11.dtd">
<svg version="1.1" id="Logo" xmlns="http://www.w3.org/2000/svg" xmlns:xlink="http://www.w3.org/1999/xlink" width="75px" height="50px" viewBox="0 0 220 100">
<g id="Logo_1_">
	<g id="Tablet_and_Monitor">
		<path fill="#FFFFFF" d="M186.15,31.98H63.35c-1.39,0-3.35,1.54-3.35,2.91v23.09H31.44c-2.27,0-3.44,1.64-3.44,4v64.13
			c0,2.359,1.17,4.87,3.44,4.87h44.15c2.27,0,4.41-2.511,4.41-4.87v-4.13h106.15c1.39,0,2.851-1.421,2.851-2.78V34.89
			C189,33.521,187.54,31.98,186.15,31.98z M32,120.98v-58h43v58H32z M181,113.98H80v-52c0-2.36-2.14-4-4.41-4H67v-19h114V113.98z"/>
	</g>
	<g id="Tablet_Stand">
		<polygon fill="#FFFFFF" points="145.176,130.98 145.306,129.597 141.762,128.732 137.778,114.98 111.482,114.98 107.499,128.611 
			103.956,129.615 104.084,130.98 		"/>
	</g>
	<g id="Phone">
		<path fill="#FFFFFF" d="M21.79,84.98H3.21C1.44,84.98,0,86.419,0,88.19v39.58c0,1.77,1.44,3.21,3.21,3.21h18.58
			c1.77,0,3.21-1.44,3.21-3.21V88.19C25,86.421,23.56,84.98,21.79,84.98z M21,122.45c0,0.29-0.24,0.53-0.53,0.53H4.53
			c-0.29,0-0.53-0.24-0.53-0.53V89.511c0-0.289,0.24-0.529,0.53-0.529h15.94c0.29,0,0.53,0.24,0.53,0.529V122.45z"/>
	</g>
	<g id="Graph_Line">
		<g>
			<polyline fill="none" stroke="#FFFFFF" stroke-width="7" stroke-linejoin="round" points="1.458,120.897 40.475,107.493 
				64.832,87.634 105.413,80.153 179.747,8.702 			"/>
			<g>
				<polygon fill="#FFFFFF" points="183.954,16.763 188.801,0 171.859,4.181 				"/>
			</g>
		</g>
	</g>
	<g>
		<rect y="115.98" fill="#FFFFFF" width="4" height="10"/>
	</g>
</g>
</svg>
