<?xml version="1.0" encoding="utf-8"?>
<!-- Generator: Adobe Illustrator 16.0.0, SVG Export Plug-In . SVG Version: 6.00 Build 0)  -->
<!DOCTYPE svg PUBLIC "-//W3C//DTD SVG 1.1//EN" "http://www.w3.org/Graphics/SVG/1.1/DTD/svg11.dtd">
<svg version="1.1" id="Logo" xmlns="http://www.w3.org/2000/svg" xmlns:xlink="http://www.w3.org/1999/xlink" x="0px" y="0px"
	 width="75px" height="50px" viewBox="0 0 75 50" enable-background="new 0 0 75 50" xml:space="preserve">
<g id="Tablet_and_Monitor">
	<path fill="#093844" d="M63.461,18.857H21.597c-0.474,0-1.142,0.525-1.142,0.992v7.872h-9.736c-0.774,0-1.173,0.559-1.173,1.363
		v21.863c0,0.804,0.399,1.66,1.173,1.66H25.77c0.773,0,1.503-0.856,1.503-1.66v-1.408h36.188c0.473,0,0.971-0.484,0.971-0.948
		V19.849C64.432,19.382,63.934,18.857,63.461,18.857z M10.909,49.197V29.425h14.659v19.772H10.909z M61.705,46.813H27.273V29.084
		c0-0.805-0.73-1.363-1.503-1.363h-2.929v-6.478h38.864V46.813z"/>
</g>
<g id="Tablet_Stand">
	<polygon fill="#093844" points="49.492,52.607 49.536,52.135 48.328,51.84 46.971,47.152 38.006,47.152 36.647,51.799 
		35.439,52.143 35.483,52.607 	"/>
</g>
<g id="Phone">
	<path fill="#093844" d="M7.428,36.925H1.094C0.491,36.925,0,37.416,0,38.02v13.494c0,0.603,0.491,1.094,1.094,1.094h6.334
		c0.604,0,1.095-0.491,1.095-1.094V38.02C8.523,37.416,8.032,36.925,7.428,36.925z M7.159,49.699c0,0.099-0.082,0.18-0.181,0.18
		H1.544c-0.099,0-0.181-0.081-0.181-0.18V38.471c0-0.1,0.082-0.182,0.181-0.182h5.434c0.099,0,0.181,0.082,0.181,0.182V49.699z"/>
</g>
<polyline fill="none" stroke="#093844" stroke-width="2" stroke-miterlimit="10" points="0.497,49.17 13.798,44.6 22.102,37.83 
	35.936,35.279 61.277,10.921 "/>
<g>
	<polygon fill="#093844" points="62.711,13.669 64.363,7.955 58.588,9.38 	"/>
</g>
</svg>
